<?xml version="1.0" encoding="iso-8859-1"?>
<!-- Generator: Adobe Illustrator 19.0.0, SVG Export Plug-In . SVG Version: 6.00 Build 0)  -->
<svg version="1.1" id="Capa_1" xmlns="http://www.w3.org/2000/svg" xmlns:xlink="http://www.w3.org/1999/xlink" x="0px" y="0px"
	 viewBox="0 0 512 512" style="enable-background:new 0 0 512 512;" xml:space="preserve">
<g>
	<g>
		<path d="M509.837,419.878l-51.166-51.165c-2.926-2.925-7.669-2.927-10.596,0c-2.926,2.926-2.926,7.67,0,10.595l45.869,45.868
			l-68.518,68.517L323.003,391.27l68.517-68.518l27.334,27.334c2.927,2.926,7.67,2.926,10.596,0c2.926-2.926,2.926-7.67,0-10.595
			l-31.65-31.65l-44.642-100.445c-1.36-3.061-4.58-4.849-7.904-4.374c-18.192,2.593-36.488,2.594-54.378,0.002
			c-45.68-6.618-79.778-28.685-100.989-46.89c11.062-11.172,22.003-22.755,32.87-34.262
			C274.547,67.033,323.465,15.233,375.21,15.233c14.093,0,24.669,3.933,31.435,11.69c11.955,13.707,9.125,35.502,9.097,35.701
			c-0.585,4.097,2.262,7.891,6.357,8.476c4.095,0.582,7.892-2.261,8.476-6.357c0.166-1.16,3.87-28.633-12.556-47.573
			c-9.737-11.228-24.14-16.92-42.81-16.92c-26.413,0-54.124,11.602-84.712,35.47c-26.564,20.727-53.035,48.759-78.636,75.867
			C159.666,166.858,105.691,224.014,47.95,224.014c-13.513,0-22.691-5.049-28.058-15.434c-4.27-8.265-4.406-16.91-4.408-17.061
			c-0.016-4.124-3.365-7.463-7.492-7.463c-4.139,0-7.492,3.354-7.492,7.492c0,0.479,0.065,11.89,5.786,23.33
			c5.502,11.003,17.196,24.121,41.664,24.121c38.246,0,73.663-21.133,107.545-50.392c18.37,21.128,41.055,55.59,47.782,102.021
			c2.591,17.889,2.59,36.184-0.002,54.379c-0.474,3.317,1.313,6.543,4.374,7.904l100.445,44.642l112.034,112.035
			c2.887,2.887,7.709,2.886,10.596,0l79.113-79.113C512.721,427.589,512.721,422.762,509.837,419.878z M218.833,341.481
			c2.043-17.745,1.8-35.548-0.727-53.002c-6.854-47.306-29.011-82.996-48.068-105.904l1.096-1.096l80.462,80.462
			c-7.335,12.102-5.787,28.117,4.656,38.561c6.135,6.135,14.192,9.201,22.25,9.201s16.116-3.067,22.25-9.201
			c0.001,0,0.001,0,0.001,0c12.268-12.269,12.268-32.232-0.001-44.501c-10.443-10.443-26.457-11.99-38.561-4.655l-80.463-80.463
			l1.095-1.095c22.911,19.057,58.601,41.214,105.905,48.067c17.455,2.529,35.257,2.77,53.004,0.728l40.851,91.914l-71.836,71.837
			L218.833,341.481z M290.158,289.906c-6.427,6.426-16.883,6.427-23.311,0c-6.425-6.425-6.426-16.878-0.005-23.306
			c0.001-0.002,0.003-0.003,0.005-0.005c0.001-0.002,0.003-0.003,0.004-0.005c3.214-3.21,7.431-4.815,11.651-4.815
			c4.221,0,8.442,1.606,11.655,4.82C296.584,273.023,296.584,283.479,290.158,289.906L290.158,289.906z"/>
	</g>
</g>
<g>
	<g>
		<path d="M175.816,392.338h-50.947v-50.486c0-4.138-3.009-7.453-7.146-7.453H66.085c-4.139,0-7.147,3.315-7.147,7.453v50.486H7.992
			c-4.139,0-7.992,3.469-7.992,7.607v51.638c0,4.138,3.853,7.684,7.992,7.684h50.947v43.954c0,4.138,3.009,7.992,7.147,7.992h51.637
			c4.139,0,7.146-3.854,7.146-7.992v-43.954h50.947c4.139,0,6.993-3.546,6.993-7.684v-51.638
			C182.808,395.807,179.954,392.338,175.816,392.338z M167.824,444.283h-50.101c-4.139,0-7.838,3.163-7.838,7.3v44.645H73.922
			v-44.645c0-4.138-3.699-7.3-7.838-7.3h-51.1v-36.961h51.1c4.139,0,7.838-3.24,7.838-7.377v-50.562h35.962v50.562
			c0,4.138,3.699,7.377,7.838,7.377h50.101V444.283z"/>
	</g>
</g>
<g>
</g>
<g>
</g>
<g>
</g>
<g>
</g>
<g>
</g>
<g>
</g>
<g>
</g>
<g>
</g>
<g>
</g>
<g>
</g>
<g>
</g>
<g>
</g>
<g>
</g>
<g>
</g>
<g>
</g>
</svg>
