<svg id="Layer_5" enable-background="new 0 0 64 64" height="512" viewBox="0 0 64 64" width="512" xmlns="http://www.w3.org/2000/svg"><path d="m18.289 43.742c2.227-1.422 3.711-3.909 3.711-6.742 0-4.411-3.589-8-8-8s-8 3.589-8 8c0 2.833 1.484 5.32 3.711 6.742-5.064 1.778-8.711 6.594-8.711 12.258v7h26v-7c0-5.664-3.647-10.48-8.711-12.258zm-10.289-6.742c0-3.309 2.691-6 6-6s6 2.691 6 6-2.691 6-6 6-6-2.691-6-6zm6.972 18.614-.972.972-.972-.972.707-10.6c.089-.003.176-.014.265-.014s.176.011.265.013zm10.028 5.386h-3v-8h-2v8h-12v-8h-2v8h-3v-5c0-5.282 3.743-9.703 8.715-10.758l-.743 11.144 3.028 3.028 3.028-3.028-.743-11.144c4.972 1.055 8.715 5.476 8.715 10.758z"/><path d="m50 7c-3.859 0-7 3.14-7 7s3.141 7 7 7 7-3.14 7-7-3.141-7-7-7zm0 12c-2.757 0-5-2.243-5-5s2.243-5 5-5 5 2.243 5 5-2.243 5-5 5z"/><path d="m63 10.219-2.416-.603 1.281-2.134-5.345-5.348-2.136 1.281-.603-2.415h-7.562l-.603 2.416-2.136-1.282-5.346 5.347 1.281 2.134-2.415.604v7.562l2.415.603-1.28 2.135 5.346 5.347 2.136-1.281.602 2.415h7.562l.603-2.416 2.136 1.281.843-.844 1.028 4.454c-.834.535-1.391 1.464-1.391 2.525 0 .311.061.606.15.888l-3.488 2.616c-.477-.317-1.048-.504-1.662-.504-.807 0-1.537.324-2.077.844l-2.96-1.48c.015-.121.037-.24.037-.364 0-1.654-1.346-3-3-3s-3 1.346-3 3c0 .462.113.894.301 1.285l-4.015 4.015c-.392-.187-.824-.3-1.286-.3-1.654 0-3 1.346-3 3s1.346 3 3 3 3-1.346 3-3c0-.462-.113-.894-.301-1.285l4.015-4.015c.392.187.824.3 1.286.3.807 0 1.537-.324 2.077-.844l2.96 1.48c-.015.121-.037.24-.037.364 0 1.654 1.346 3 3 3s3-1.346 3-3c0-.311-.061-.606-.149-.888l3.489-2.617c.475.318 1.046.505 1.66.505 1.654 0 3-1.346 3-3 0-1.537-1.166-2.793-2.658-2.965l-1.311-5.681 2.834-2.835-1.28-2.135 2.415-.603zm-27 32.781c-.552 0-1-.449-1-1s.448-1 1-1 1 .449 1 1-.448 1-1 1zm8-8c-.552 0-1-.449-1-1s.448-1 1-1 1 .449 1 1-.448 1-1 1zm8 4c-.552 0-1-.449-1-1s.448-1 1-1 1 .449 1 1-.448 1-1 1zm8-8c.552 0 1 .449 1 1s-.448 1-1 1-1-.449-1-1 .448-1 1-1zm1-14.781-1.949.487-.534.202-.465 1.142 1.296 2.16-3.139 3.138-2.159-1.296-1.22.503-.611 2.445h-4.438l-.611-2.446-1.22-.503-2.159 1.296-3.139-3.138 1.296-2.16-.496-1.218-2.452-.612v-4.438l1.949-.487.535-.203.464-1.142-1.296-2.158 3.139-3.138 2.159 1.296 1.22-.503.611-2.446h4.438l.611 2.446 1.22.503 2.159-1.296 3.139 3.138-1.296 2.158.496 1.22 2.452.612z"/><path d="m33 63h6v-16h-6zm2-14h2v12h-2z"/><path d="m41 63h6v-24h-6zm2-22h2v20h-2z"/><path d="m49 63h6v-20h-6zm2-18h2v16h-2z"/><path d="m57 63h6v-26h-6zm2-24h2v22h-2z"/><path d="m10 27h25v-11c0-3.86-3.141-7-7-7h-18c-3.859 0-7 3.14-7 7v4c0 3.86 3.141 7 7 7zm-5-11c0-2.757 2.243-5 5-5h18c2.757 0 5 2.243 5 5v9h-23c-2.757 0-5-2.243-5-5z"/><path d="m7 13h2v2h-2z"/><path d="m11 13h2v2h-2z"/><path d="m15 13h16v2h-16z"/><path d="m7 17h24v2h-24z"/><path d="m7 21h24v2h-24z"/><path d="m50 11c-1.654 0-3 1.346-3 3s1.346 3 3 3 3-1.346 3-3-1.346-3-3-3zm0 4c-.552 0-1-.449-1-1s.448-1 1-1 1 .449 1 1-.448 1-1 1z"/></svg>